<?xml version="1.0" encoding="UTF-8"?>
<svg xmlns="http://www.w3.org/2000/svg" onmouseup="{ if(window.parent.document.onmouseup) window.parent.document.onmouseup(arguments[0]);}" viewBox="0 0 388.5 521.79"><defs><style>.cls-1{fill:#ffff67;stroke:#fbb03b;}.cls-1,.cls-2{stroke-miterlimit:10;}.cls-2{fill:#f7931e;stroke:#a67c52;}.cls-3{fill:#a67c52;}.cls-4{fill:#fff;}</style></defs><g data-name="Layer 2" id="Layer_2"><g id="Chick"><ellipse data-cppathid="10000" ry="176.61" rx="193.75" cy="344.68" cx="194.25" class="cls-1"/><ellipse data-cppathid="10001" ry="112.67" rx="116.01" cy="113.17" cx="194.25" class="cls-1"/><ellipse data-cppathid="10002" ry="17.56" rx="18.08" cy="105.72" cx="264.16"/><ellipse data-cppathid="10003" ry="17.56" rx="18.08" cy="105.72" cx="133.84"/><polygon data-cppathid="10004" points="194.25 208.47 215.69 158.27 172.81 158.27 194.25 208.47" class="cls-2"/><path data-cppathid="10005" d="M263.81,100.65l6.54,4.37a1.5,1.5,0,0,0,1.51-2.59l-6.53-4.37a1.51,1.51,0,0,0-2.06.54,1.53,1.53,0,0,0,.54,2.05Z" class="cls-3"/><path data-cppathid="10006" d="M131.35,97c-.49,5.35,3.74,10.55,9,11.47a1.52,1.52,0,0,0,1.9-1.44,17.17,17.17,0,0,0-6.49-12.9,1.55,1.55,0,0,0-2.12,0,1.51,1.51,0,0,0,0,2.12A14.35,14.35,0,0,1,139.21,107l1.9-1.45a8.27,8.27,0,0,1-5.09-3A7.56,7.56,0,0,1,134.35,97a1.5,1.5,0,0,0-3,0Z" class="cls-3"/><path data-cppathid="10007" d="M131.94,94.29a8.63,8.63,0,0,0,.23,8.44,9,9,0,0,0,7.16,4.68,1.51,1.51,0,0,0,1.5-1.5,1.53,1.53,0,0,0-1.5-1.5l-.27,0h.07a3.73,3.73,0,0,1-.46-.09,6.45,6.45,0,0,1-.75-.22l-.25-.1c.14.06.16.07.06,0l-.41-.2a7.39,7.39,0,0,1-.66-.42c-.08,0-.32-.24-.12-.07l-.35-.3c-.21-.19-.41-.4-.6-.61l-.26-.3c-.1-.13-.11-.14,0,0l-.12-.16c-.16-.24-.31-.47-.45-.72s-.25-.47-.36-.71c.14.3,0-.12-.07-.19s-.09-.28-.14-.43-.13-.5-.18-.76a2.21,2.21,0,0,1,0-.25c0,.16,0,.19,0,.08s0-.3,0-.45a5,5,0,0,1,0-.77l0-.38c0,.38,0-.16.06-.23.06-.25.14-.49.22-.74s-.1.16,0-.12l.24-.47a1.5,1.5,0,1,0-2.59-1.51Z" class="cls-4"/><path data-cppathid="10008" d="M133.8,99.73a11.35,11.35,0,0,1,1.77,9.58,1.5,1.5,0,0,0,2.89.79,14.33,14.33,0,0,0-2.07-11.89,1.55,1.55,0,0,0-2.06-.54,1.51,1.51,0,0,0-.53,2.06Z" class="cls-4"/><path data-cppathid="10009" d="M134.05,97.49l4.47,8.51a1.5,1.5,0,0,0,2,.54,1.53,1.53,0,0,0,.54-2.05L136.64,96a1.5,1.5,0,0,0-2.59,1.52Z" class="cls-4"/><path data-cppathid="10010" d="M260.07,95.77A8.7,8.7,0,0,1,261,96l.43.14c.05,0,.44.18.2.07A9.56,9.56,0,0,1,263,97a5.23,5.23,0,0,1,.53.39c.23.2.45.4.66.61a8,8,0,0,1,.56.6l.21.25.19.27a9.51,9.51,0,0,1,.86,1.48s.18.43.08.18c.06.14.11.27.16.41s.16.52.23.78.12.52.16.79,0-.15,0,.18l0,.43a8.58,8.58,0,0,1,0,.88l0,.37c0,.11,0,.09,0,0a2.5,2.5,0,0,1-.05.29,1.54,1.54,0,0,0,1.05,1.85,1.51,1.51,0,0,0,1.84-1,11.25,11.25,0,0,0-8.64-12.78A1.55,1.55,0,0,0,259,93.93a1.51,1.51,0,0,0,1.05,1.84Z" class="cls-4"/><path data-cppathid="10011" d="M264.48,95.85a7.35,7.35,0,0,1,4.9,8c0-.28,0,.19,0,.2s-.06.29-.1.44a8.45,8.45,0,0,1-.28.85c.09-.23-.08.15-.1.19s-.14.27-.22.4a4.92,4.92,0,0,1-.28.45c-.16.24-.06.08-.2.25a1.55,1.55,0,0,0,0,2.12,1.51,1.51,0,0,0,2.12,0c4.38-5.2,1.58-14-5-15.74a1.5,1.5,0,0,0-.8,2.89Z" class="cls-4"/><path data-cppathid="10012" d="M132.76,98.45c.25,0,.49,0,.74,0l-.16,0,.19,0,.37.09.27.1c.25.08-.3-.15.08,0a5.3,5.3,0,0,1,.57.33l.16.11h0l.14.13a5.44,5.44,0,0,1,.48.48l.12.14c.1.13.08.1-.05-.07,0,0,.16.22.17.23.13.2.26.41.37.62s.1.21.15.31-.11-.31,0,.09c.08.21.14.42.2.64l.06.28,0,.18c0,.17,0,.13,0-.11a2.4,2.4,0,0,0,0,.65c0,.11,0,.22,0,.33,0,.38.06-.28,0,0a5.8,5.8,0,0,1-.16.63c-.13.4.1-.16,0,.08,0,.08-.08.17-.13.25a2.14,2.14,0,0,1-.2.32c-.23.35.11-.12-.06.09a1.54,1.54,0,0,0,0,2.12,1.52,1.52,0,0,0,2.12,0,6.22,6.22,0,0,0,1.22-5.72,7.53,7.53,0,0,0-3.41-4.55,6.11,6.11,0,0,0-3.29-.83,1.5,1.5,0,0,0,0,3Z" class="cls-4"/></g></g></svg>